<?xml version="1.0" encoding="UTF-8"?>
<!DOCTYPE svg PUBLIC "-//W3C//DTD SVG 1.1//EN" "http://www.w3.org/Graphics/SVG/1.1/DTD/svg11.dtd">
<!-- Creator: CorelDRAW X8 -->
<svg xmlns="http://www.w3.org/2000/svg" xml:space="preserve" width="0.690031in" height="1.09713in" version="1.1" style="shape-rendering:geometricPrecision; text-rendering:geometricPrecision; image-rendering:optimizeQuality; fill-rule:evenodd; clip-rule:evenodd"
viewBox="0 0 88 140"
 xmlns:xlink="http://www.w3.org/1999/xlink">
 <defs>
  <style type="text/css">
   <![CDATA[
    .str0 {stroke:white;stroke-width:0.383044}
    .fil0 {fill:#007EA7}
   ]]>
  </style>
 </defs>
 <g id="Layer_x0020_1">
  <metadata id="CorelCorpID_0Corel-Layer"/>
  <path class="fil0 str0" d="M0 41c0,7 1,12 4,18 0,1 0,2 1,3l3 5c3,5 6,9 8,14 13,18 21,33 27,55 0,1 1,3 1,4l0 0c0,-2 3,-12 4,-14 1,-4 4,-11 6,-15 1,-1 1,-2 1,-3 5,-10 11,-19 17,-27l3 -6c1,-1 3,-3 4,-5 1,-2 2,-4 3,-6 2,-4 4,-7 5,-12 0,-2 1,-5 1,-7l0 -4c-1,-10 -4,-19 -10,-26 -3,-2 -3,-3 -6,-5 -1,-1 -1,-1 -3,-2 -2,-2 -4,-3 -6,-4 -5,-2 -11,-4 -17,-4l-4 0c-3,0 -6,1 -9,1 -4,1 -7,3 -11,5 -6,3 -12,9 -16,15 -3,6 -6,13 -6,20zm44 -9l9 7 8 8 0 16 -13 0 0 -3c0,-2 -1,-4 -4,-4l0 0c-2,0 -4,2 -4,4l0 3 -13 0 0 -16 8 -8 9 -7zm9 -2l0 -3c0,-1 1,-2 2,-2l0 0c2,0 3,1 3,2l0 8 8 7c1,1 1,3 0,3l0 0c0,1 -2,1 -3,1l-19 -18 -19 18c-1,0 -2,0 -3,-1l0 0c-1,0 -1,-2 0,-3l21 -19 1 -1 0 0 0 0 1 1 8 7z"/>
 </g>
</svg>
